<?xml version="1.0" standalone="no"?>
<!DOCTYPE svg PUBLIC "-//W3C//DTD SVG 20010904//EN"
 "http://www.w3.org/TR/2001/REC-SVG-20010904/DTD/svg10.dtd">
<svg version="1.0" xmlns="http://www.w3.org/2000/svg"
 width="2000.000000pt" height="2000.000000pt" viewBox="0 0 2000.000000 2000.000000"
 preserveAspectRatio="xMidYMid meet">

<g transform="translate(0.000000,2000.000000) scale(0.100000,-0.100000)"
fill="#000000" stroke="none">
<path d="M9710 19994 c-585 -21 -1125 -82 -1669 -190 -2402 -476 -4549 -1829
-6039 -3806 -605 -803 -1097 -1723 -1435 -2679 -405 -1145 -602 -2430 -558
-3632 16 -450 39 -710 96 -1113 250 -1752 960 -3399 2069 -4794 390 -490 897
-1012 1386 -1426 1382 -1169 3095 -1952 4875 -2229 1506 -234 3034 -128 4475
309 951 288 1856 720 2690 1285 541 366 976 726 1461 1211 347 347 568 595
840 946 1829 2356 2505 5391 1853 8322 -490 2204 -1741 4196 -3534 5627 -1515
1210 -3368 1955 -5295 2129 -354 32 -914 51 -1215 40z m3220 -4290 c78 -37
141 -99 178 -174 l27 -55 0 -1900 0 -1900 -22 -47 c-29 -63 -106 -144 -165
-174 l-47 -24 -2971 0 -2971 0 -50 25 c-64 33 -121 90 -156 157 l-28 53 0
1910 0 1910 27 51 c36 69 69 106 126 143 101 64 -131 60 3072 58 l2915 -2 65
-31z m-3486 -4469 c9 -47 50 -92 94 -105 24 -8 163 -10 405 -8 l369 3 29 32
c16 18 31 45 35 60 3 16 7 34 10 41 3 9 348 12 1685 12 l1682 0 -6 -63 c-12
-127 -71 -235 -154 -284 l-48 -28 -3529 -3 c-2460 -1 -3540 1 -3568 8 -50 14
-107 65 -141 128 -28 52 -57 156 -57 210 l0 32 1594 0 1594 0 6 -35z m-2934
-1631 c151 -17 355 -66 473 -113 445 -177 736 -517 856 -1001 56 -226 54 -185
61 -1550 6 -1236 7 -1268 28 -1385 50 -282 130 -472 273 -650 34 -42 76 -87
95 -101 19 -15 34 -29 34 -33 0 -8 -517 -495 -530 -499 -17 -6 -171 122 -265
219 -96 99 -218 273 -255 363 l-22 53 -107 -107 c-58 -58 -142 -131 -186 -162
-216 -151 -500 -261 -805 -314 -128 -22 -522 -30 -672 -15 -389 41 -716 167
-977 375 -99 80 -251 243 -313 337 -255 385 -333 898 -208 1375 172 654 768
1077 1674 1189 197 24 482 35 960 35 l449 0 -6 248 c-8 333 -32 462 -117 638
-40 83 -60 111 -117 165 -123 116 -280 177 -516 200 -181 17 -430 0 -647 -46
-335 -70 -701 -238 -989 -454 -52 -39 -98 -70 -103 -69 -9 4 -398 596 -398
607 0 5 44 43 98 86 454 365 1100 597 1732 624 201 8 334 4 500 -15z m3034
-30 c210 -141 396 -390 505 -677 l11 -27 68 77 c274 311 621 513 1031 601 117
25 143 26 371 26 218 0 257 -2 350 -22 437 -95 764 -313 991 -659 l47 -72 78
91 c296 343 737 586 1188 653 133 19 407 19 546 0 679 -97 1188 -585 1306
-1255 31 -180 32 -309 13 -1900 -10 -872 -19 -1683 -19 -1802 l0 -218 -391 0
-391 0 3 1808 c3 1457 1 1822 -9 1887 -41 250 -113 416 -232 536 -153 155
-325 214 -620 213 -184 -1 -307 -21 -452 -74 -287 -105 -525 -329 -738 -693
l-60 -103 0 -1787 0 -1787 -405 0 -405 0 0 1774 c0 1520 -2 1791 -15 1889 -52
398 -235 653 -536 745 -95 29 -248 45 -359 38 -353 -25 -649 -165 -915 -431
-121 -120 -178 -196 -254 -335 l-41 -75 0 -1802 0 -1803 -405 0 -405 0 -2
1928 -3 1927 -23 115 c-59 293 -154 486 -339 680 l-78 82 250 249 c138 137
255 249 260 249 6 0 41 -21 79 -46z"/>
<path d="M7050 13575 l0 -1865 2880 0 2880 0 0 1865 0 1865 -2880 0 -2880 0 0
-1865z m5270 1225 l0 -300 -2330 0 -2330 0 0 300 0 300 2330 0 2330 0 0 -300z
m-1620 -605 l0 -75 -1520 0 -1520 0 0 75 0 75 1520 0 1520 0 0 -75z m1620 0
l0 -75 -700 0 -700 0 0 75 0 75 700 0 700 0 0 -75z m-1625 -225 l0 -75 -1515
0 -1515 0 -3 78 -3 77 1518 -2 1518 -3 0 -75z m1625 0 l0 -80 -700 0 -700 0 0
80 0 80 700 0 700 0 0 -80z m-1625 -220 l0 -75 -1517 -3 -1518 -2 0 80 0 80
1518 -2 1517 -3 0 -75z m1625 0 l0 -80 -700 0 -700 0 0 80 0 80 700 0 700 0 0
-80z m0 -220 l0 -80 -700 0 -700 0 0 80 0 80 700 0 700 0 0 -80z m0 -225 l0
-75 -700 0 -700 0 0 75 0 75 700 0 700 0 0 -75z m-2950 -100 l0 -165 -855 0
-855 0 0 165 0 165 855 0 855 0 0 -165z m2950 -125 l0 -80 -700 0 -700 0 0 80
0 80 700 0 700 0 0 -80z m-3252 -532 l3 -78 -706 0 -705 0 0 80 0 80 703 -2
702 -3 3 -77z m1627 2 l0 -75 -702 -3 -703 -2 0 80 0 80 703 -2 702 -3 0 -75z
m1625 -225 l0 -305 -700 0 -700 0 0 305 0 305 700 0 700 0 0 -305z m-3250 0
l0 -75 -705 0 -705 0 0 75 0 75 705 0 705 0 0 -75z m1630 0 l0 -75 -705 0
-705 0 0 75 0 75 705 0 705 0 0 -75z m-1632 -222 l-3 -78 -702 -3 -703 -2 0
80 0 80 705 0 706 0 -3 -77z m1627 -3 l0 -75 -702 -3 -703 -2 0 80 0 80 703
-2 702 -3 0 -75z"/>
<path d="M5888 6859 c-717 -51 -1058 -284 -1118 -763 -31 -243 20 -493 134
-665 122 -183 320 -307 576 -362 139 -29 422 -32 575 -5 544 97 924 467 1001
976 10 69 14 195 14 463 l0 367 -537 -1 c-296 -1 -586 -5 -645 -10z"/>
</g>
</svg>
