<svg xmlns="http://www.w3.org/2000/svg" version="1.1" xmlns:xlink="http://www.w3.org/1999/xlink" xmlns:svgjs="http://svgjs.dev/svgjs" width="1000" height="1000" viewBox="0 0 1000 1000"><rect width="1000" height="1000" fill="#000000"></rect><g transform="matrix(0.7,0,0,0.7,149.90044910179654,149.90044910179637)"><svg viewBox="0 0 334 334" data-background-color="#ffffff" preserveAspectRatio="xMidYMid meet" height="1000" width="1000" xmlns="http://www.w3.org/2000/svg" xmlns:xlink="http://www.w3.org/1999/xlink"><g id="tight-bounds" transform="matrix(1,0,0,1,0.04749999999998522,0.04750000000001364)"><svg viewBox="0 0 333.90454557049503 333.90454557049503" height="333.90454557049503" width="333.90454557049503"><g><svg></svg></g><g><svg viewBox="0 0 333.90454557049503 333.90454557049503" height="333.90454557049503" width="333.90454557049503"><g><path d="M0 166.952c0-92.205 74.747-166.952 166.952-166.952 92.205 0 166.952 74.747 166.953 166.952 0 92.205-74.747 166.952-166.953 166.953-92.205 0-166.952-74.747-166.952-166.953zM166.952 325.832c87.747 0 158.879-71.133 158.88-158.88 0-87.747-71.133-158.879-158.88-158.879-87.747 0-158.879 71.133-158.879 158.879 0 87.747 71.133 158.879 158.879 158.88z" data-fill-palette-color="tertiary" fill="#ff908b" stroke="transparent"></path><ellipse rx="160.27418187383762" ry="160.27418187383762" cx="166.95227278524752" cy="166.95227278524752" fill="#ff908b" stroke="transparent" stroke-width="0" fill-opacity="1" data-fill-palette-color="tertiary"></ellipse></g><g transform="matrix(1,0,0,1,65.63027891644222,71.17305217166896)"><svg viewBox="0 0 202.6439877376106 191.55844122715712" height="191.55844122715712" width="202.6439877376106"><g><svg viewBox="0 0 202.6439877376106 191.55844122715712" height="191.55844122715712" width="202.6439877376106"><g><svg viewBox="0 0 213.1584412271571 201.49770635561944" height="191.55844122715712" width="202.6439877376106"><g transform="matrix(1,0,0,1,0,107.33371001177831)"><svg viewBox="0 0 213.1584412271571 94.16399634384113" height="94.16399634384113" width="213.1584412271571"><g><svg viewBox="0 0 213.1584412271571 94.16399634384113" height="94.16399634384113" width="213.1584412271571"><g><svg viewBox="0 0 213.1584412271571 94.16399634384113" height="94.16399634384113" width="213.1584412271571"><g transform="matrix(1,0,0,1,0,0)"><svg width="213.1584412271571" viewBox="1.75 -25.9 60.101072038863 26.55" height="94.16399634384113" data-palette-color="#ffffff"><path d="M20.9 0.65Q19-0.65 18.2-2.55L18.2-2.55Q17.05-1.1 15.13-0.3 13.2 0.5 10.8 0.5L10.8 0.5Q6.7 0.5 4.23-1.75 1.75-4 1.75-7.7L1.75-7.7Q1.75-11.6 4.7-13.78 7.65-15.95 12.95-15.95L12.95-15.95 17.3-15.95 17.3-17Q17.3-19.85 16.28-21.03 15.25-22.2 12.8-22.2L12.8-22.2Q10.7-22.2 8.68-21.45 6.65-20.7 4.95-19.3L4.95-19.3 2.95-22.35Q4.75-24 7.4-24.95 10.05-25.9 12.85-25.9L12.85-25.9Q17-25.9 19.2-23.75 21.4-21.6 21.4-17.55L21.4-17.55 21.4-7.6Q21.4-3.65 23.55-1.85L23.55-1.85 20.9 0.65ZM10.85-3.2Q13.75-3.2 15.53-4.88 17.3-6.55 17.3-9.2L17.3-9.2 17.3-12.25 12.95-12.25Q9.2-12.25 7.53-11.18 5.85-10.1 5.85-7.75L5.85-7.75Q5.85-5.6 7.18-4.4 8.5-3.2 10.85-3.2L10.85-3.2ZM28.85-17.7Q28.85-19.45 28.37-20.85 27.9-22.25 26.6-23.4L26.6-23.4 29.15-25.9Q31.15-24.75 32.1-22.15L32.1-22.15Q33.5-23.9 35.4-24.8 37.3-25.7 39.35-25.7L39.35-25.7Q41.55-25.7 43.37-24.73 45.2-23.75 46.25-21.9L46.25-21.9Q47.7-23.75 49.72-24.73 51.75-25.7 53.85-25.7L53.85-25.7Q57.35-25.7 59.62-23.45 61.9-21.2 61.85-17.4L61.85-17.4 61.65 0.05 57.8 0.05 57.85-16.85Q57.85-19.45 56.82-20.73 55.8-22 53.6-22L53.6-22Q51.5-22 50-20.93 48.5-19.85 47.35-17.65L47.35-17.65 47.35 0.05 43.35 0.05 43.35-16.85Q43.35-19.35 42.3-20.68 41.25-22 39.2-22L39.2-22Q37.15-22 35.4-20.8 33.65-19.6 32.85-17.8L32.85-17.8 32.85 0.05 28.85 0.05 28.85-17.7Z" opacity="1" transform="matrix(1,0,0,1,0,0)" fill="#ffffff" class="undefined-text-0" data-fill-palette-color="quaternary" id="text-0"></path></svg></g></svg></g></svg></g></svg></g><g transform="matrix(1,0,0,1,40.713262274387006,0)"><svg viewBox="0 0 131.7319166783831 85.10385041090967" height="85.10385041090967" width="131.7319166783831"><g><svg xmlns="http://www.w3.org/2000/svg" xmlns:xlink="http://www.w3.org/1999/xlink" version="1.1" x="0" y="0" viewBox="5.71 21.067 88.57990123171648 57.226000000000006" enable-background="new 0 0 100 100" xml:space="preserve" width="131.7319166783831" height="85.10385041090967" class="icon-icon-0" data-fill-palette-color="quaternary" id="icon-0"><g fill="#ffffff" data-fill-palette-color="quaternary"><g fill="#ffffff" data-fill-palette-color="quaternary"><g fill="#ffffff" data-fill-palette-color="quaternary"><path d="M14.254 71.932c-1.739-0.502-3.03-2.094-3.03-3.988V25.234c0-2.292 1.877-4.167 4.168-4.167h67.53c2.292 0 4.168 1.875 4.168 4.167v42.708c0 1.895-1.29 3.488-3.03 3.99h-1.611H14.254zM15.111 68.652h68.09V24.523H15.112L15.111 68.652 15.111 68.652z" fill="#ffffff" data-fill-palette-color="quaternary"></path><path d="M94.289 73.869H54.563c-0.021 0.436-0.198 1.756-1.684 1.756-3.738 0-3.864 0-7.602 0-1.69 0-1.897-1.32-1.921-1.756H5.71c0 0 0 4.424 3.234 4.424 3.234 0 78.207 0 81.853 0C94.441 78.293 94.289 73.869 94.289 73.869z" fill="#ffffff" data-fill-palette-color="quaternary"></path><path d="M77.399 64.922c-5.575 0-11.015 0-16.566 0 0-2.357 0-4.684 0-7.146 5.468 0 10.967 0 16.566 0C77.399 60.125 77.399 62.451 77.399 64.922z" fill="#ffffff" data-fill-palette-color="quaternary"></path><path d="M77.399 35.683c-18.516 0-36.582 0-55.018 0 0-2.356 0-4.683 0-7.146 18.157 0 36.422 0 55.018 0C77.399 30.887 77.399 33.212 77.399 35.683z" fill="#ffffff" data-fill-palette-color="quaternary"></path><g fill="#ffffff" data-fill-palette-color="quaternary"><path d="M58.185 62.256c-5.574 0-11.014 0-16.565 0 0-0.592 0-1.178 0-1.797 5.467 0 10.967 0 16.565 0C58.185 61.049 58.185 61.635 58.185 62.256z" fill="#ffffff" data-fill-palette-color="quaternary"></path><path d="M58.185 64.893c-5.574 0-11.014 0-16.565 0 0-0.592 0-1.178 0-1.795 5.467 0 10.967 0 16.565 0C58.185 63.688 58.185 64.273 58.185 64.893z" fill="#ffffff" data-fill-palette-color="quaternary"></path><path d="M58.185 59.617c-5.574 0-11.014 0-16.565 0 0-0.592 0-1.176 0-1.795 5.467 0 10.967 0 16.565 0C58.185 58.412 58.185 58.998 58.185 59.617z" fill="#ffffff" data-fill-palette-color="quaternary"></path></g><g fill="#ffffff" data-fill-palette-color="quaternary"><path d="M77.399 42.786c-5.575 0-11.015 0-16.566 0 0-0.593 0-1.178 0-1.797 5.468 0 10.967 0 16.566 0C77.399 41.58 77.399 42.165 77.399 42.786z" fill="#ffffff" data-fill-palette-color="quaternary"></path><path d="M77.399 45.423c-5.575 0-11.015 0-16.566 0 0-0.592 0-1.177 0-1.795 5.468 0 10.967 0 16.566 0C77.399 44.217 77.399 44.803 77.399 45.423z" fill="#ffffff" data-fill-palette-color="quaternary"></path><path d="M77.399 40.148c-5.575 0-11.015 0-16.566 0 0-0.593 0-1.177 0-1.796 5.468 0 10.967 0 16.566 0C77.399 38.943 77.399 39.527 77.399 40.148z" fill="#ffffff" data-fill-palette-color="quaternary"></path></g><g fill="#ffffff" data-fill-palette-color="quaternary"><path d="M77.399 50.68c-5.575 0-11.015 0-16.566 0 0-0.593 0-1.178 0-1.796 5.468 0 10.967 0 16.566 0C77.399 49.473 77.399 50.059 77.399 50.68z" fill="#ffffff" data-fill-palette-color="quaternary"></path><path d="M77.399 53.316c-5.575 0-11.015 0-16.566 0 0-0.592 0-1.178 0-1.795 5.468 0 10.967 0 16.566 0C77.399 52.111 77.399 52.695 77.399 53.316z" fill="#ffffff" data-fill-palette-color="quaternary"></path><path d="M77.399 48.042c-5.575 0-11.015 0-16.566 0 0-0.592 0-1.177 0-1.795 5.468 0 10.967 0 16.566 0C77.399 46.836 77.399 47.422 77.399 48.042z" fill="#ffffff" data-fill-palette-color="quaternary"></path></g><g fill="#ffffff" data-fill-palette-color="quaternary"><path d="M38.945 62.256c-5.575 0-11.014 0-16.565 0 0-0.592 0-1.178 0-1.797 5.467 0 10.966 0 16.565 0C38.945 61.049 38.945 61.635 38.945 62.256z" fill="#ffffff" data-fill-palette-color="quaternary"></path><path d="M38.945 64.893c-5.575 0-11.014 0-16.565 0 0-0.592 0-1.178 0-1.795 5.467 0 10.966 0 16.565 0C38.945 63.688 38.945 64.273 38.945 64.893z" fill="#ffffff" data-fill-palette-color="quaternary"></path><path d="M38.945 59.617c-5.575 0-11.014 0-16.565 0 0-0.592 0-1.176 0-1.795 5.467 0 10.966 0 16.565 0C38.945 58.412 38.945 58.998 38.945 59.617z" fill="#ffffff" data-fill-palette-color="quaternary"></path></g><g fill="#ffffff" data-fill-palette-color="quaternary"><path d="M58.185 42.786c-12.049 0-23.807 0-35.805 0 0-0.593 0-1.178 0-1.797 11.816 0 23.703 0 35.805 0C58.185 41.58 58.185 42.165 58.185 42.786z" fill="#ffffff" data-fill-palette-color="quaternary"></path><path d="M58.185 45.423c-12.049 0-23.807 0-35.805 0 0-0.592 0-1.177 0-1.795 11.816 0 23.703 0 35.805 0C58.185 44.217 58.185 44.803 58.185 45.423z" fill="#ffffff" data-fill-palette-color="quaternary"></path><path d="M58.185 40.148c-12.049 0-23.807 0-35.805 0 0-0.593 0-1.177 0-1.796 11.816 0 23.703 0 35.805 0C58.185 38.943 58.185 39.527 58.185 40.148z" fill="#ffffff" data-fill-palette-color="quaternary"></path></g><path d="M22.381 49.048c6.771 0 13.448 0 20.202 0 0 1.293 0 2.522 0 3.877-6.708 0-13.415 0-20.202 0C22.381 51.666 22.381 50.433 22.381 49.048z" fill="#ffffff" data-fill-palette-color="quaternary"></path></g><g fill="#ffffff" data-fill-palette-color="quaternary"><path d="M14.254 71.932c-1.739-0.502-3.03-2.094-3.03-3.988V25.234c0-2.292 1.877-4.167 4.168-4.167h67.53c2.292 0 4.168 1.875 4.168 4.167v42.708c0 1.895-1.29 3.488-3.03 3.99h-1.611H14.254zM15.111 68.652h68.09V24.523H15.112L15.111 68.652 15.111 68.652z" fill="#ffffff" data-fill-palette-color="quaternary"></path><path d="M94.289 73.869H54.563c-0.021 0.436-0.198 1.756-1.684 1.756-3.738 0-3.864 0-7.602 0-1.69 0-1.897-1.32-1.921-1.756H5.71c0 0 0 4.424 3.234 4.424 3.234 0 78.207 0 81.853 0C94.441 78.293 94.289 73.869 94.289 73.869z" fill="#ffffff" data-fill-palette-color="quaternary"></path><path fill-rule="evenodd" clip-rule="evenodd" d="M77.399 64.922c-5.575 0-11.015 0-16.566 0 0-2.357 0-4.684 0-7.146 5.468 0 10.967 0 16.566 0C77.399 60.125 77.399 62.451 77.399 64.922z" fill="#ffffff" data-fill-palette-color="quaternary"></path><path fill-rule="evenodd" clip-rule="evenodd" d="M77.399 35.683c-18.516 0-36.582 0-55.018 0 0-2.356 0-4.683 0-7.146 18.157 0 36.422 0 55.018 0C77.399 30.887 77.399 33.212 77.399 35.683z" fill="#ffffff" data-fill-palette-color="quaternary"></path><g fill="#ffffff" data-fill-palette-color="quaternary"><path fill-rule="evenodd" clip-rule="evenodd" d="M58.185 62.256c-5.574 0-11.014 0-16.565 0 0-0.592 0-1.178 0-1.797 5.467 0 10.967 0 16.565 0C58.185 61.049 58.185 61.635 58.185 62.256z" fill="#ffffff" data-fill-palette-color="quaternary"></path><path fill-rule="evenodd" clip-rule="evenodd" d="M58.185 64.893c-5.574 0-11.014 0-16.565 0 0-0.592 0-1.178 0-1.795 5.467 0 10.967 0 16.565 0C58.185 63.688 58.185 64.273 58.185 64.893z" fill="#ffffff" data-fill-palette-color="quaternary"></path><path fill-rule="evenodd" clip-rule="evenodd" d="M58.185 59.617c-5.574 0-11.014 0-16.565 0 0-0.592 0-1.176 0-1.795 5.467 0 10.967 0 16.565 0C58.185 58.412 58.185 58.998 58.185 59.617z" fill="#ffffff" data-fill-palette-color="quaternary"></path></g><g fill="#ffffff" data-fill-palette-color="quaternary"><path fill-rule="evenodd" clip-rule="evenodd" d="M77.399 42.786c-5.575 0-11.015 0-16.566 0 0-0.593 0-1.178 0-1.797 5.468 0 10.967 0 16.566 0C77.399 41.58 77.399 42.165 77.399 42.786z" fill="#ffffff" data-fill-palette-color="quaternary"></path><path fill-rule="evenodd" clip-rule="evenodd" d="M77.399 45.423c-5.575 0-11.015 0-16.566 0 0-0.592 0-1.177 0-1.795 5.468 0 10.967 0 16.566 0C77.399 44.217 77.399 44.803 77.399 45.423z" fill="#ffffff" data-fill-palette-color="quaternary"></path><path fill-rule="evenodd" clip-rule="evenodd" d="M77.399 40.148c-5.575 0-11.015 0-16.566 0 0-0.593 0-1.177 0-1.796 5.468 0 10.967 0 16.566 0C77.399 38.943 77.399 39.527 77.399 40.148z" fill="#ffffff" data-fill-palette-color="quaternary"></path></g><g fill="#ffffff" data-fill-palette-color="quaternary"><path fill-rule="evenodd" clip-rule="evenodd" d="M77.399 50.68c-5.575 0-11.015 0-16.566 0 0-0.593 0-1.178 0-1.796 5.468 0 10.967 0 16.566 0C77.399 49.473 77.399 50.059 77.399 50.68z" fill="#ffffff" data-fill-palette-color="quaternary"></path><path fill-rule="evenodd" clip-rule="evenodd" d="M77.399 53.316c-5.575 0-11.015 0-16.566 0 0-0.592 0-1.178 0-1.795 5.468 0 10.967 0 16.566 0C77.399 52.111 77.399 52.695 77.399 53.316z" fill="#ffffff" data-fill-palette-color="quaternary"></path><path fill-rule="evenodd" clip-rule="evenodd" d="M77.399 48.042c-5.575 0-11.015 0-16.566 0 0-0.592 0-1.177 0-1.795 5.468 0 10.967 0 16.566 0C77.399 46.836 77.399 47.422 77.399 48.042z" fill="#ffffff" data-fill-palette-color="quaternary"></path></g><g fill="#ffffff" data-fill-palette-color="quaternary"><path fill-rule="evenodd" clip-rule="evenodd" d="M38.945 62.256c-5.575 0-11.014 0-16.565 0 0-0.592 0-1.178 0-1.797 5.467 0 10.966 0 16.565 0C38.945 61.049 38.945 61.635 38.945 62.256z" fill="#ffffff" data-fill-palette-color="quaternary"></path><path fill-rule="evenodd" clip-rule="evenodd" d="M38.945 64.893c-5.575 0-11.014 0-16.565 0 0-0.592 0-1.178 0-1.795 5.467 0 10.966 0 16.565 0C38.945 63.688 38.945 64.273 38.945 64.893z" fill="#ffffff" data-fill-palette-color="quaternary"></path><path fill-rule="evenodd" clip-rule="evenodd" d="M38.945 59.617c-5.575 0-11.014 0-16.565 0 0-0.592 0-1.176 0-1.795 5.467 0 10.966 0 16.565 0C38.945 58.412 38.945 58.998 38.945 59.617z" fill="#ffffff" data-fill-palette-color="quaternary"></path></g><g fill="#ffffff" data-fill-palette-color="quaternary"><path fill-rule="evenodd" clip-rule="evenodd" d="M58.185 42.786c-12.049 0-23.807 0-35.805 0 0-0.593 0-1.178 0-1.797 11.816 0 23.703 0 35.805 0C58.185 41.58 58.185 42.165 58.185 42.786z" fill="#ffffff" data-fill-palette-color="quaternary"></path><path fill-rule="evenodd" clip-rule="evenodd" d="M58.185 45.423c-12.049 0-23.807 0-35.805 0 0-0.592 0-1.177 0-1.795 11.816 0 23.703 0 35.805 0C58.185 44.217 58.185 44.803 58.185 45.423z" fill="#ffffff" data-fill-palette-color="quaternary"></path><path fill-rule="evenodd" clip-rule="evenodd" d="M58.185 40.148c-12.049 0-23.807 0-35.805 0 0-0.593 0-1.177 0-1.796 11.816 0 23.703 0 35.805 0C58.185 38.943 58.185 39.527 58.185 40.148z" fill="#ffffff" data-fill-palette-color="quaternary"></path></g><path fill-rule="evenodd" clip-rule="evenodd" d="M22.381 49.048c6.771 0 13.448 0 20.202 0 0 1.293 0 2.522 0 3.877-6.708 0-13.415 0-20.202 0C22.381 51.666 22.381 50.433 22.381 49.048z" fill="#ffffff" data-fill-palette-color="quaternary"></path></g></g></g><g fill="#ffffff" data-fill-palette-color="quaternary"></g></svg></g></svg></g><g></g></svg></g></svg></g></svg></g></svg></g><defs></defs></svg><rect width="333.90454557049503" height="333.90454557049503" fill="none" stroke="none" visibility="hidden"></rect></g></svg></g></svg>